# Blender v3.0.0 OBJ File: ''
# www.blender.org
mtllib alembic.mtl
o Panel
v -0.404639 0.171886 0.640653
v -0.154639 0.171879 0.640636
v -0.154662 0.171879 0.296886
v -0.404662 0.171886 0.296903
v -0.154672 -0.171871 0.296886
v -0.154649 -0.171871 0.640636
v -0.404649 -0.171864 0.640653
v -0.404672 -0.171864 0.296903
vt 0.515625 0.109375
vt 0.453125 0.015625
vt 0.453125 0.109375
vt 0.296875 0.109375
vt 0.359375 0.015625
vt 0.296875 0.015625
vt 0.531250 0.109375
vt 0.593750 0.015625
vt 0.531250 0.015625
vt 0.437500 0.109375
vt 0.375000 0.015625
vt 0.375000 0.109375
vt 0.265625 0.453125
vt 0.359375 0.359375
vt 0.265625 0.359375
vt 0.375000 0.218750
vt 0.281250 0.125000
vt 0.281250 0.218750
vt 0.515625 0.015625
vt 0.359375 0.109375
vt 0.593750 0.109375
vt 0.437500 0.015625
vt 0.359375 0.453125
vt 0.375000 0.125000
vn 0.0000 1.0000 0.0000
vn -0.0000 -1.0000 -0.0000
vn 0.0001 -0.0000 1.0000
vn -0.0001 0.0000 -1.0000
vn 1.0000 -0.0000 -0.0001
vn -1.0000 0.0000 0.0001
usemtl m_0
s 1
f 2/1/1 4/2/1 1/3/1
f 6/4/2 8/5/2 5/6/2
f 2/7/3 7/8/3 6/9/3
f 3/10/4 8/11/4 4/12/4
f 2/13/5 5/14/5 3/15/5
f 1/16/6 8/17/6 7/18/6
f 2/1/1 3/19/1 4/2/1
f 6/4/2 7/20/2 8/5/2
f 2/7/3 1/21/3 7/8/3
f 3/10/4 5/22/4 8/11/4
f 2/13/5 6/23/5 5/14/5
f 1/16/6 4/24/6 8/17/6
o TubeMain
v -0.220945 0.000006 0.375015
v 0.000032 0.220971 0.375000
v -0.000011 0.220971 -0.250000
v -0.220988 0.000006 -0.249985
v 0.220954 -0.000006 -0.250015
v 0.220996 -0.000006 0.374985
v 0.000019 -0.220971 0.375000
v -0.000023 -0.220971 -0.250000
vt 0.578125 0.281250
vt 0.500000 0.125000
vt 0.500000 0.281250
vt 0.500000 0.281250
vt 0.578125 0.125000
vt 0.500000 0.125000
vt 0.000000 0.343750
vt 0.078125 0.421875
vt 0.078125 0.343750
vt 0.062500 0.515625
vt 0.140625 0.437500
vt 0.062500 0.437500
vt 0.500000 0.281250
vt 0.578125 0.125000
vt 0.500000 0.125000
vt 0.578125 0.281250
vt 0.500000 0.125000
vt 0.500000 0.281250
vt 0.578125 0.125000
vt 0.578125 0.281250
vt 0.000000 0.421875
vt 0.140625 0.515625
vt 0.578125 0.281250
vt 0.578125 0.125000
vn -0.7071 0.7071 0.0000
vn 0.7071 -0.7071 -0.0000
vn 0.0001 -0.0000 1.0000
vn -0.0001 0.0000 -1.0000
vn 0.7071 0.7071 -0.0000
vn -0.7071 -0.7071 0.0000
usemtl m_0
s 1
f 10/25/7 12/26/7 9/27/7
f 14/28/8 16/29/8 13/30/8
f 10/31/9 15/32/9 14/33/9
f 11/34/10 16/35/10 12/36/10
f 10/37/11 13/38/11 11/39/11
f 9/40/12 16/41/12 15/42/12
f 10/25/7 11/43/7 12/26/7
f 14/28/8 15/44/8 16/29/8
f 10/31/9 9/45/9 15/32/9
f 11/34/10 13/46/10 16/35/10
f 10/37/11 14/47/11 13/38/11
f 9/40/12 12/48/12 16/41/12
o TubeSmall
v -0.210352 0.272882 0.250014
v -0.102100 0.210379 0.250007
v -0.102135 0.210379 -0.249993
v -0.210386 0.272882 -0.249986
v -0.164638 0.102128 -0.249989
v -0.164604 0.102128 0.250011
v -0.272855 0.164631 0.250019
v -0.272889 0.164631 -0.249981
v 0.102135 -0.210379 0.249993
v 0.164638 -0.102128 0.249989
v 0.164604 -0.102128 -0.250011
v 0.102100 -0.210379 -0.250007
v 0.272855 -0.164631 -0.250019
v 0.272889 -0.164631 0.249981
v 0.210386 -0.272882 0.249986
v 0.210352 -0.272882 -0.250014
v 0.102146 0.210374 0.249993
v 0.210401 0.272871 0.249986
v 0.210367 0.272871 -0.250014
v 0.102112 0.210374 -0.250007
v 0.272864 0.164616 -0.250019
v 0.272898 0.164616 0.249981
v 0.164643 0.102119 0.249989
v 0.164609 0.102119 -0.250011
v -0.272864 -0.164616 0.250019
v -0.164609 -0.102119 0.250011
v -0.164643 -0.102119 -0.249989
v -0.272898 -0.164616 -0.249981
v -0.102146 -0.210374 -0.249993
v -0.102112 -0.210374 0.250007
v -0.210367 -0.272871 0.250014
v -0.210401 -0.272871 -0.249986
vt 0.093750 0.140625
vt 0.062500 0.015625
vt 0.062500 0.140625
vt 0.062500 0.140625
vt 0.093750 0.015625
vt 0.062500 0.015625
vt 0.328125 0.062500
vt 0.359375 0.093750
vt 0.359375 0.062500
vt 0.015625 0.046875
vt 0.046875 0.015625
vt 0.015625 0.015625
vt 0.109375 0.140625
vt 0.140625 0.015625
vt 0.109375 0.015625
vt 0.093750 0.140625
vt 0.062500 0.015625
vt 0.062500 0.140625
vt 0.140625 0.140625
vt 0.109375 0.015625
vt 0.109375 0.140625
vt 0.062500 0.140625
vt 0.093750 0.015625
vt 0.062500 0.015625
vt 0.421875 0.062500
vt 0.453125 0.093750
vt 0.453125 0.062500
vt 0.015625 0.046875
vt 0.046875 0.015625
vt 0.015625 0.015625
vt 0.062500 0.140625
vt 0.093750 0.015625
vt 0.062500 0.015625
vt 0.093750 0.140625
vt 0.062500 0.015625
vt 0.062500 0.140625
vt 0.093750 0.140625
vt 0.062500 0.015625
vt 0.062500 0.140625
vt 0.062500 0.140625
vt 0.093750 0.015625
vt 0.062500 0.015625
vt 0.000000 0.046875
vt 0.031250 0.078125
vt 0.031250 0.046875
vt 0.015625 0.046875
vt 0.046875 0.015625
vt 0.015625 0.015625
vt 0.062500 0.140625
vt 0.093750 0.015625
vt 0.062500 0.015625
vt 0.140625 0.140625
vt 0.109375 0.015625
vt 0.109375 0.140625
vt 0.093750 0.140625
vt 0.062500 0.015625
vt 0.062500 0.140625
vt 0.062500 0.140625
vt 0.093750 0.015625
vt 0.062500 0.015625
vt 0.921875 0.421875
vt 0.953125 0.453125
vt 0.953125 0.421875
vt 0.015625 0.046875
vt 0.046875 0.015625
vt 0.015625 0.015625
vt 0.109375 0.140625
vt 0.140625 0.015625
vt 0.109375 0.015625
vt 0.093750 0.140625
vt 0.062500 0.015625
vt 0.062500 0.140625
vt 0.093750 0.015625
vt 0.093750 0.140625
vt 0.328125 0.093750
vt 0.046875 0.046875
vt 0.140625 0.140625
vt 0.093750 0.015625
vt 0.140625 0.015625
vt 0.093750 0.140625
vt 0.421875 0.093750
vt 0.046875 0.046875
vt 0.093750 0.140625
vt 0.093750 0.015625
vt 0.093750 0.015625
vt 0.093750 0.140625
vt 0.000000 0.078125
vt 0.046875 0.046875
vt 0.093750 0.140625
vt 0.140625 0.015625
vt 0.093750 0.015625
vt 0.093750 0.140625
vt 0.921875 0.453125
vt 0.046875 0.046875
vt 0.140625 0.140625
vt 0.093750 0.015625
vn 0.5000 0.8660 -0.0000
vn -0.5000 -0.8660 0.0000
vn 0.0001 -0.0000 1.0000
vn -0.0001 0.0000 -1.0000
vn 0.8660 -0.5000 -0.0001
vn -0.8660 0.5000 0.0001
vn -0.5000 0.8660 0.0000
vn 0.5000 -0.8660 -0.0000
vn 0.8660 0.5000 -0.0001
vn -0.8660 -0.5000 0.0001
usemtl m_0
s 1
f 18/49/13 20/50/13 17/51/13
f 22/52/14 24/53/14 21/54/14
f 18/55/15 23/56/15 22/57/15
f 19/58/16 24/59/16 20/60/16
f 18/61/17 21/62/17 19/63/17
f 17/64/18 24/65/18 23/66/18
f 26/67/18 28/68/18 25/69/18
f 30/70/17 32/71/17 29/72/17
f 26/73/15 31/74/15 30/75/15
f 27/76/16 32/77/16 28/78/16
f 26/79/13 29/80/13 27/81/13
f 25/82/14 32/83/14 31/84/14
f 34/85/19 36/86/19 33/87/19
f 38/88/20 40/89/20 37/90/20
f 34/91/15 39/92/15 38/93/15
f 35/94/16 40/95/16 36/96/16
f 34/97/21 37/98/21 35/99/21
f 33/100/22 40/101/22 39/102/22
f 42/103/19 44/104/19 41/105/19
f 46/106/20 48/107/20 45/108/20
f 42/109/15 47/110/15 46/111/15
f 43/112/16 48/113/16 44/114/16
f 42/115/21 45/116/21 43/117/21
f 41/118/22 48/119/22 47/120/22
f 18/49/13 19/121/13 20/50/13
f 22/52/14 23/122/14 24/53/14
f 18/55/15 17/123/15 23/56/15
f 19/58/16 21/124/16 24/59/16
f 18/61/17 22/125/17 21/62/17
f 17/64/18 20/126/18 24/65/18
f 26/67/18 27/127/18 28/68/18
f 30/70/17 31/128/17 32/71/17
f 26/73/15 25/129/15 31/74/15
f 27/76/16 29/130/16 32/77/16
f 26/79/13 30/131/13 29/80/13
f 25/82/14 28/132/14 32/83/14
f 34/85/19 35/133/19 36/86/19
f 38/88/20 39/134/20 40/89/20
f 34/91/15 33/135/15 39/92/15
f 35/94/16 37/136/16 40/95/16
f 34/97/21 38/137/21 37/98/21
f 33/100/22 36/138/22 40/101/22
f 42/103/19 43/139/19 44/104/19
f 46/106/20 47/140/20 48/107/20
f 42/109/15 41/141/15 47/110/15
f 43/112/16 45/142/16 48/113/16
f 42/115/21 46/143/21 45/116/21
f 41/118/22 44/144/22 48/119/22
o Legs
v -0.062492 -0.139188 0.169524
v 0.062508 -0.139191 0.169515
v 0.062482 -0.404356 -0.095650
v -0.062518 -0.404353 -0.095641
v 0.062486 -0.492744 -0.007262
v 0.062511 -0.227579 0.257903
v -0.062489 -0.227576 0.257912
v -0.062514 -0.492741 -0.007253
v 0.093383 -0.134929 0.160674
v 0.155886 -0.026678 0.160670
v 0.385504 -0.159267 -0.104511
v 0.323001 -0.267518 -0.104507
v 0.462055 -0.203463 -0.016128
v 0.232437 -0.070874 0.249053
v 0.169934 -0.179126 0.249057
v 0.399552 -0.311715 -0.016123
v 0.062515 0.139188 0.169515
v -0.062485 0.139191 0.169524
v -0.062495 0.404356 -0.095641
v 0.062505 0.404353 -0.095650
v -0.062487 0.492744 -0.007253
v -0.062476 0.227579 0.257912
v 0.062524 0.227576 0.257903
v 0.062513 0.492741 -0.007262
v -0.093361 0.134929 0.160687
v -0.155864 0.026678 0.160691
v -0.385518 0.159267 -0.104458
v -0.323015 0.267518 -0.104462
v -0.462057 0.203463 -0.016065
v -0.232403 0.070874 0.249085
v -0.169900 0.179126 0.249081
v -0.399554 0.311715 -0.016069
v -0.155865 -0.026669 0.160691
v -0.093369 -0.134924 0.160687
v -0.323030 -0.267500 -0.104462
v -0.385527 -0.159245 -0.104458
v -0.399572 -0.311692 -0.016069
v -0.169910 -0.179116 0.249081
v -0.232407 -0.070861 0.249085
v -0.462069 -0.203437 -0.016065
v 0.155887 0.026669 0.160670
v 0.093390 0.134924 0.160674
v 0.323016 0.267500 -0.104507
v 0.385513 0.159245 -0.104511
v 0.399570 0.311692 -0.016123
v 0.169944 0.179116 0.249057
v 0.232441 0.070861 0.249053
v 0.462067 0.203437 -0.016128
vt 0.093750 0.343750
vt 0.062500 0.156250
vt 0.062500 0.343750
vt 0.015625 0.343750
vt 0.046875 0.250000
vt 0.015625 0.250000
vt 0.406250 0.796875
vt 0.437500 0.828125
vt 0.437500 0.796875
vt 0.015625 0.046875
vt 0.046875 0.015625
vt 0.015625 0.015625
vt 0.062500 0.156250
vt 0.093750 0.343750
vt 0.093750 0.156250
vt 0.093750 0.343750
vt 0.062500 0.156250
vt 0.062500 0.343750
vt 0.062500 0.343750
vt 0.093750 0.156250
vt 0.062500 0.156250
vt 0.046876 0.343750
vt 0.015626 0.250000
vt 0.046876 0.249999
vt 0.078125 0.093750
vt 0.046875 0.125000
vt 0.078125 0.125000
vt 0.015625 0.015625
vt 0.046875 0.046875
vt 0.046875 0.015625
vt 0.062500 0.156250
vt 0.093750 0.343750
vt 0.093750 0.156250
vt 0.062500 0.343750
vt 0.093750 0.156250
vt 0.062500 0.156250
vt 0.093750 0.343750
vt 0.062500 0.156250
vt 0.062500 0.343750
vt 0.046876 0.343751
vt 0.015626 0.249999
vt 0.046876 0.250000
vt 0.921875 0.734375
vt 0.890625 0.765625
vt 0.921875 0.765625
vt 0.015625 0.015625
vt 0.046875 0.046875
vt 0.046875 0.015625
vt 0.093750 0.343750
vt 0.062500 0.156250
vt 0.062500 0.343750
vt 0.093750 0.343750
vt 0.062500 0.156250
vt 0.062500 0.343750
vt 0.062500 0.343750
vt 0.093750 0.156250
vt 0.062500 0.156250
vt 0.015625 0.343749
vt 0.046876 0.249999
vt 0.015625 0.249999
vt 0.890625 0.515625
vt 0.921875 0.546875
vt 0.921875 0.515625
vt 0.046875 0.015625
vt 0.015625 0.046875
vt 0.046875 0.046875
vt 0.062500 0.156250
vt 0.093750 0.343750
vt 0.093750 0.156250
vt 0.062500 0.343750
vt 0.093750 0.156250
vt 0.062500 0.156250
vt 0.093750 0.343750
vt 0.062500 0.156250
vt 0.062500 0.343750
vt 0.015625 0.249999
vt 0.046875 0.343750
vt 0.046875 0.249999
vt 0.921875 0.140625
vt 0.890625 0.171875
vt 0.921875 0.171875
vt 0.015625 0.015625
vt 0.046875 0.046875
vt 0.046875 0.015625
vt 0.062500 0.343750
vt 0.093750 0.156250
vt 0.062500 0.156250
vt 0.093750 0.343750
vt 0.062500 0.156250
vt 0.062500 0.343750
vt 0.093750 0.343750
vt 0.062500 0.156250
vt 0.062500 0.343750
vt 0.046876 0.343750
vt 0.015625 0.250000
vt 0.046876 0.249999
vt 0.265625 0.093750
vt 0.234375 0.062500
vt 0.234375 0.093750
vt 0.015625 0.046875
vt 0.046875 0.015625
vt 0.015625 0.015625
vt 0.062500 0.156250
vt 0.093750 0.343750
vt 0.093750 0.156250
vt 0.062500 0.343750
vt 0.093750 0.156250
vt 0.062500 0.156250
vt 0.093750 0.156250
vt 0.046875 0.343750
vt 0.406250 0.828125
vt 0.046875 0.046875
vt 0.062500 0.343750
vt 0.093750 0.156250
vt 0.093750 0.343750
vt 0.015626 0.343751
vt 0.046875 0.093750
vt 0.015625 0.046875
vt 0.062500 0.343750
vt 0.093750 0.343750
vt 0.093750 0.156250
vt 0.015626 0.343749
vt 0.890625 0.734375
vt 0.015625 0.046875
vt 0.093750 0.156250
vt 0.093750 0.156250
vt 0.093750 0.343750
vt 0.046876 0.343750
vt 0.890625 0.546875
vt 0.015625 0.015625
vt 0.062500 0.343750
vt 0.093750 0.343750
vt 0.093750 0.156250
vt 0.015625 0.343750
vt 0.890625 0.140625
vt 0.015625 0.046875
vt 0.093750 0.343750
vt 0.093750 0.156250
vt 0.093750 0.156250
vt 0.015625 0.343749
vt 0.265625 0.062500
vt 0.046875 0.046875
vt 0.062500 0.343750
vt 0.093750 0.343750
vn -0.0000 0.7071 -0.7071
vn 0.0000 -0.7071 0.7071
vn 0.0001 0.7071 0.7071
vn -0.0001 -0.7071 -0.7071
vn 1.0000 -0.0000 -0.0001
vn -1.0000 0.0000 0.0001
vn -0.6124 0.3536 -0.7071
vn 0.6124 -0.3536 0.7071
vn -0.6123 0.3536 0.7071
vn 0.6123 -0.3536 -0.7071
vn 0.5000 0.8660 -0.0000
vn -0.5000 -0.8660 0.0000
vn 0.6123 0.3535 -0.7071
vn -0.6123 -0.3535 0.7071
vn 0.6124 0.3535 0.7071
vn -0.6124 -0.3535 -0.7071
vn 0.5000 -0.8660 -0.0000
vn -0.5000 0.8660 0.0000
usemtl m_0
s 1
f 50/145/23 52/146/23 49/147/23
f 54/148/24 56/149/24 53/150/24
f 50/151/25 55/152/25 54/153/25
f 51/154/26 56/155/26 52/156/26
f 51/157/27 54/158/27 53/159/27
f 49/160/28 56/161/28 55/162/28
f 57/163/29 59/164/29 60/165/29
f 62/166/30 64/167/30 61/168/30
f 58/169/31 63/170/31 62/171/31
f 60/172/32 61/173/32 64/174/32
f 59/175/33 62/176/33 61/177/33
f 63/178/34 60/179/34 64/180/34
f 66/181/26 68/182/26 65/183/26
f 70/184/25 72/185/25 69/186/25
f 66/187/24 71/188/24 70/189/24
f 67/190/23 72/191/23 68/192/23
f 67/193/28 70/194/28 69/195/28
f 65/196/27 72/197/27 71/198/27
f 73/199/32 75/200/32 76/201/32
f 78/202/31 80/203/31 77/204/31
f 74/205/30 79/206/30 78/207/30
f 76/208/29 77/209/29 80/210/29
f 75/211/34 78/212/34 77/213/34
f 79/214/33 76/215/33 80/216/33
f 82/217/35 84/218/35 81/219/35
f 85/220/36 87/221/36 88/222/36
f 86/223/37 81/224/37 87/225/37
f 83/226/38 88/227/38 84/228/38
f 82/229/39 85/230/39 83/231/39
f 81/232/40 88/233/40 87/234/40
f 90/235/38 92/236/38 89/237/38
f 94/238/37 96/239/37 93/240/37
f 94/241/36 89/242/36 95/243/36
f 91/244/35 96/245/35 92/246/35
f 91/247/40 94/248/40 93/249/40
f 95/250/39 92/251/39 96/252/39
f 50/145/23 51/253/23 52/146/23
f 54/148/24 55/254/24 56/149/24
f 50/151/25 49/255/25 55/152/25
f 51/154/26 53/256/26 56/155/26
f 51/157/27 50/257/27 54/158/27
f 49/160/28 52/258/28 56/161/28
f 57/163/29 58/259/29 59/164/29
f 62/166/30 63/260/30 64/167/30
f 58/169/31 57/261/31 63/170/31
f 60/172/32 59/262/32 61/173/32
f 59/175/33 58/263/33 62/176/33
f 63/178/34 57/264/34 60/179/34
f 66/181/26 67/265/26 68/182/26
f 70/184/25 71/266/25 72/185/25
f 66/187/24 65/267/24 71/188/24
f 67/190/23 69/268/23 72/191/23
f 67/193/28 66/269/28 70/194/28
f 65/196/27 68/270/27 72/197/27
f 73/199/32 74/271/32 75/200/32
f 78/202/31 79/272/31 80/203/31
f 74/205/30 73/273/30 79/206/30
f 76/208/29 75/274/29 77/209/29
f 75/211/34 74/275/34 78/212/34
f 79/214/33 73/276/33 76/215/33
f 82/217/35 83/277/35 84/218/35
f 85/220/36 86/278/36 87/221/36
f 86/223/37 82/279/37 81/224/37
f 83/226/38 85/280/38 88/227/38
f 82/229/39 86/281/39 85/230/39
f 81/232/40 84/282/40 88/233/40
f 90/235/38 91/283/38 92/236/38
f 94/238/37 95/284/37 96/239/37
f 94/241/36 90/285/36 89/242/36
f 91/244/35 93/286/35 96/245/35
f 91/247/40 90/287/40 94/248/40
f 95/250/39 89/288/39 92/251/39
o Pot
v 0.230056 0.406069 0.656234
v 0.460045 -0.000013 0.656219
v 0.000045 -0.000000 0.656250
v 0.230064 0.406069 0.771234
v 0.460053 -0.000013 0.771219
v 0.322060 -0.000009 0.886228
v 0.161068 0.284248 0.886239
v 0.000061 -0.000000 0.886250
v -0.229944 0.406082 0.656266
v -0.229936 0.406082 0.771266
v -0.160932 0.284257 0.886261
v -0.459955 0.000013 0.656281
v -0.459947 0.000013 0.771281
v -0.321939 0.000009 0.886272
v -0.229967 -0.406069 0.656266
v -0.229959 -0.406069 0.771266
v -0.160947 -0.284248 0.886261
v 0.230034 -0.406082 0.656234
v 0.230041 -0.406082 0.771234
v 0.161053 -0.284257 0.886239
v 0.170073 0.288032 0.133738
v 0.340122 -0.000009 0.133727
v 0.000009 -0.000000 0.133750
v 0.402517 -0.000011 0.248723
v 0.201276 0.340866 0.248736
v 0.201312 0.340866 0.771236
v 0.402553 -0.000011 0.771223
v 0.000053 -0.000000 0.771250
v -0.170039 0.288041 0.133762
v -0.201224 0.340877 0.248764
v -0.201188 0.340877 0.771264
v -0.340103 0.000009 0.133773
v -0.402483 0.000011 0.248777
v -0.402447 0.000011 0.771277
v -0.170055 -0.288032 0.133762
v -0.201243 -0.340866 0.248764
v -0.201207 -0.340866 0.771264
v 0.170057 -0.288041 0.133738
v 0.201257 -0.340877 0.248736
v 0.201293 -0.340877 0.771236
vt 0.015625 0.536250
vt 0.117144 0.593750
vt 0.117144 0.478750
vt 0.156250 0.015625
vt 0.265625 0.046875
vt 0.265625 0.015625
vt 0.180438 0.182750
vt 0.109375 0.223000
vt 0.180438 0.263250
vt 0.015625 0.421250
vt 0.156250 0.015625
vt 0.265625 0.046875
vt 0.265625 0.015625
vt 0.109375 0.303500
vt 0.117144 0.363750
vt 0.156250 0.015625
vt 0.265625 0.046875
vt 0.265625 0.015625
vt 0.180438 0.343750
vt 0.218663 0.421250
vt 0.156250 0.015625
vt 0.265625 0.046875
vt 0.265625 0.015625
vt 0.251500 0.303500
vt 0.218663 0.536250
vt 0.156250 0.015625
vt 0.265625 0.046875
vt 0.265625 0.015625
vt 0.251500 0.223000
vt 0.156250 0.015625
vt 0.265625 0.046875
vt 0.265625 0.015625
vt 0.170342 0.109375
vt 0.269016 0.062500
vt 0.152344 0.062500
vt 0.255919 0.109375
vt 0.156250 0.062500
vt 0.174248 0.109375
vt 0.255919 0.109375
vt 0.156250 0.062500
vt 0.174248 0.109375
vt 0.174248 0.109375
vt 0.272922 0.062500
vt 0.156250 0.062500
vt 0.255919 0.109375
vt 0.156250 0.062500
vt 0.174248 0.109375
vt 0.255919 0.109375
vt 0.156250 0.062500
vt 0.174248 0.109375
vt 0.281250 0.394986
vt 0.353259 0.437500
vt 0.353259 0.352472
vt 0.390625 0.125000
vt 0.484375 0.250000
vt 0.484375 0.125000
vt 0.303967 0.798750
vt 0.218750 0.849063
vt 0.303967 0.899375
vt 0.281250 0.309958
vt 0.390625 0.125000
vt 0.484375 0.250000
vt 0.484375 0.125000
vt 0.218750 0.949687
vt 0.353259 0.267444
vt 0.390625 0.125000
vt 0.484375 0.250000
vt 0.484375 0.125000
vt 0.303967 1.000000
vt 0.425269 0.309958
vt 0.390625 0.125000
vt 0.484375 0.250000
vt 0.484375 0.125000
vt 0.389184 0.949687
vt 0.425269 0.394986
vt 0.390625 0.125000
vt 0.484375 0.250000
vt 0.484375 0.125000
vt 0.389184 0.849063
vt 0.390625 0.125000
vt 0.484375 0.250000
vt 0.484375 0.125000
vt 0.247281 0.125000
vt 0.156250 0.156250
vt 0.255211 0.156250
vt 0.163659 0.125000
vt 0.255211 0.156250
vt 0.247281 0.125000
vt 0.164180 0.125000
vt 0.255211 0.156250
vt 0.247802 0.125000
vt 0.247281 0.125000
vt 0.156250 0.156250
vt 0.255211 0.156250
vt 0.163659 0.125000
vt 0.255211 0.156250
vt 0.247281 0.125000
vt 0.164180 0.125000
vt 0.255211 0.156250
vt 0.247802 0.125000
vt 0.156250 0.046875
vt 0.156250 0.046875
vt 0.156250 0.046875
vt 0.156250 0.046875
vt 0.156250 0.046875
vt 0.156250 0.046875
vt 0.252012 0.109375
vt 0.272922 0.062500
vt 0.272922 0.062500
vt 0.255919 0.109375
vt 0.272922 0.062500
vt 0.272922 0.062500
vt 0.390625 0.250000
vt 0.390625 0.250000
vt 0.390625 0.250000
vt 0.390625 0.250000
vt 0.390625 0.250000
vt 0.390625 0.250000
vt 0.163659 0.125000
vt 0.156250 0.156250
vt 0.156250 0.156250
vt 0.163659 0.125000
vt 0.156250 0.156250
vt 0.156250 0.156250
vn -0.0001 0.0000 -1.0000
vn 0.8701 0.4928 -0.0001
vn 0.0001 -0.0000 1.0000
vn 0.0000 1.0000 -0.0000
vn -0.8701 0.4929 0.0001
vn -0.8701 -0.4928 0.0001
vn -0.0000 -1.0000 0.0000
vn 0.8701 -0.4929 -0.0001
vn 0.6019 0.3409 0.7222
vn 0.0001 0.6865 0.7272
vn -0.6018 0.3409 0.7223
vn -0.6018 -0.3409 0.7223
vn 0.0000 -0.6865 0.7272
vn 0.6019 -0.3409 0.7222
vn 0.8611 0.5084 -0.0001
vn -0.8611 0.5084 0.0001
vn -0.8611 -0.5084 0.0001
vn 0.8611 -0.5084 -0.0001
vn 0.7802 0.4606 -0.4233
vn -0.0000 0.9087 -0.4175
vn -0.7802 0.4606 -0.4232
vn -0.7802 -0.4606 -0.4232
vn -0.0001 -0.9087 -0.4175
vn 0.7801 -0.4606 -0.4233
usemtl m_0
s 1
f 97/289/41 98/290/41 99/291/41
f 97/292/42 101/293/42 98/294/42
f 102/295/43 103/296/43 104/297/43
f 105/298/41 97/289/41 99/291/41
f 105/299/44 100/300/44 97/301/44
f 103/296/43 107/302/43 104/297/43
f 108/303/41 105/298/41 99/291/41
f 108/304/45 106/305/45 105/306/45
f 107/302/43 110/307/43 104/297/43
f 111/308/41 108/303/41 99/291/41
f 111/309/46 109/310/46 108/311/46
f 110/307/43 113/312/43 104/297/43
f 114/313/41 111/308/41 99/291/41
f 114/314/47 112/315/47 111/316/47
f 113/312/43 116/317/43 104/297/43
f 98/290/41 114/313/41 99/291/41
f 98/318/48 115/319/48 114/320/48
f 116/317/43 102/295/43 104/297/43
f 103/321/49 101/322/49 100/323/49
f 103/324/50 106/325/50 107/326/50
f 107/327/51 109/328/51 110/329/51
f 113/330/52 109/331/52 112/332/52
f 113/333/53 115/334/53 116/335/53
f 116/336/54 101/337/54 102/338/54
f 117/339/41 118/340/41 119/341/41
f 121/342/55 123/343/55 120/344/55
f 123/345/43 122/346/43 124/347/43
f 125/348/41 117/339/41 119/341/41
f 126/349/44 122/350/44 121/351/44
f 122/346/43 127/352/43 124/347/43
f 128/353/41 125/348/41 119/341/41
f 129/354/56 127/355/56 126/356/56
f 127/352/43 130/357/43 124/347/43
f 131/358/41 128/353/41 119/341/41
f 132/359/57 130/360/57 129/361/57
f 130/357/43 133/362/43 124/347/43
f 134/363/41 131/358/41 119/341/41
f 135/364/47 133/365/47 132/366/47
f 133/362/43 136/367/43 124/347/43
f 118/340/41 134/363/41 119/341/41
f 120/368/58 136/369/58 135/370/58
f 136/367/43 123/345/43 124/347/43
f 118/371/59 121/372/59 120/373/59
f 125/374/60 121/375/60 117/376/60
f 128/377/61 126/378/61 125/379/61
f 128/380/62 132/381/62 129/382/62
f 134/383/63 132/384/63 131/385/63
f 118/386/64 135/387/64 134/388/64
f 97/292/42 100/389/42 101/293/42
f 105/299/44 106/390/44 100/300/44
f 108/304/45 109/391/45 106/305/45
f 111/309/46 112/392/46 109/310/46
f 114/314/47 115/393/47 112/315/47
f 98/318/48 101/394/48 115/319/48
f 103/321/49 102/395/49 101/322/49
f 103/324/50 100/396/50 106/325/50
f 107/327/51 106/397/51 109/328/51
f 113/330/52 110/398/52 109/331/52
f 113/333/53 112/399/53 115/334/53
f 116/336/54 115/400/54 101/337/54
f 121/342/55 122/401/55 123/343/55
f 126/349/44 127/402/44 122/350/44
f 129/354/56 130/403/56 127/355/56
f 132/359/57 133/404/57 130/360/57
f 135/364/47 136/405/47 133/365/47
f 120/368/58 123/406/58 136/369/58
f 118/371/59 117/407/59 121/372/59
f 125/374/60 126/408/60 121/375/60
f 128/377/61 129/409/61 126/378/61
f 128/380/62 131/410/62 132/381/62
f 134/383/63 135/411/63 132/384/63
f 118/386/64 120/412/64 135/387/64
