# Blender v3.0.0 OBJ File: 'pillar.blend'
# www.blender.org
mtllib pillar.mtl
o cube.003
v -0.499986 0.500014 -0.000002
v -0.018566 0.011442 1.940399
v -0.053457 -0.449372 1.749524
v -0.267383 0.266557 1.274001
v 0.113553 -0.614846 2.118484
v 0.008507 -0.386340 1.749745
v -0.374991 0.375011 0.499999
v 0.148444 -0.154032 2.309360
v 0.442250 0.054882 1.751293
v -0.278307 -0.346866 1.154764
v 0.609260 -0.110593 2.120254
v 0.034675 -0.040730 1.892902
v -0.500014 -0.499986 -0.000002
v 0.407360 -0.405932 1.560417
v 0.574370 -0.571406 1.929378
v -0.194845 -0.430244 1.576057
v 0.380287 -0.008150 1.751072
v -0.375013 -0.374989 0.499999
v -0.183920 0.183180 1.695295
v -0.207133 0.206438 1.250167
v 0.346042 0.278784 1.154896
v -0.500016 -0.499986 0.499998
v 0.429504 0.195406 1.576190
v -0.375014 -0.374989 0.937499
v 0.335117 -0.334639 1.035658
v -0.499988 0.500014 0.499998
v 0.418579 -0.418017 1.456952
v -0.374993 0.375011 0.937499
v 0.500014 0.499986 0.000002
v 0.375009 0.374989 0.500001
v 0.500012 0.499986 0.500002
v 0.375007 0.374989 0.937501
v 0.499986 -0.500014 0.000002
v 0.374987 -0.375011 0.500001
v 0.499984 -0.500014 0.500002
v 0.374986 -0.375011 0.937501
v 0.250699 -0.250376 0.937501
v 0.240542 0.259241 0.937501
v -0.269075 0.268317 0.937499
v -0.258917 -0.241300 0.937499
v 0.283607 0.216219 1.154883
v 0.274867 -0.274520 1.059493
v -0.215873 -0.284301 1.154777
v 0.301384 0.070028 1.576758
v -0.070345 -0.308213 1.575544
v 0.305922 -0.306007 1.501438
v -0.074884 0.067821 1.650863
v 0.354119 -0.353760 1.607915
vt 0.499963 0.624699
vt 0.251065 0.500294
vt 0.251065 0.624949
vt 0.250219 1.000008
vt 0.499841 0.875152
vt 0.499861 1.000042
vt 0.250054 0.875005
vt 0.499774 0.750325
vt 0.499997 0.875214
vt 0.499835 0.749883
vt 0.250358 0.625007
vt 0.250672 0.749896
vt 0.031694 0.780679
vt 0.249449 0.750530
vt 0.000568 0.750489
vt 0.219066 0.969243
vt 0.000243 0.999688
vt 0.249359 0.999614
vt 0.001298 0.500712
vt 0.250079 0.748718
vt 0.002073 0.748718
vt 0.156601 0.234356
vt 0.343689 0.343741
vt 0.343781 0.234531
vt 0.343072 0.234903
vt 0.156295 0.343216
vt 0.156293 0.235295
vt 0.343589 0.234770
vt 0.156566 0.343668
vt 0.156563 0.234775
vt 0.156567 0.234506
vt 0.343396 0.343266
vt 0.343405 0.234570
vt 0.655964 0.530901
vt 0.500507 0.500170
vt 0.531216 0.530869
vt 0.531143 0.655836
vt 0.500331 0.500970
vt 0.501106 0.686974
vt 0.624692 0.890559
vt 0.500658 0.835527
vt 0.500472 0.890562
vt 0.500215 0.834929
vt 0.623989 0.889886
vt 0.500007 0.889889
vt 0.500558 0.858467
vt 0.624303 0.889275
vt 0.500453 0.889274
vt 0.500887 0.858819
vt 0.624571 0.889624
vt 0.624783 0.834769
vt 0.501332 0.890943
vt 0.656305 0.999915
vt 0.656652 0.890941
vt 0.655810 0.891135
vt 0.500835 1.000246
vt 0.501222 0.891527
vt 0.655667 0.891582
vt 0.500040 0.999700
vt 0.500396 0.891082
vt 0.500404 0.891234
vt 0.656265 0.999884
vt 0.656641 0.891214
vt 0.124578 0.374492
vt 0.001011 0.344354
vt 0.031040 0.374761
vt 0.155850 0.499557
vt 0.031328 0.469059
vt 0.001137 0.499288
vt 0.500561 0.750998
vt 0.593654 0.777544
vt 0.593615 0.728387
vt 0.593007 0.776772
vt 0.500460 0.732490
vt 0.593095 0.710871
vt 0.467947 0.359229
vt 0.359163 0.344306
vt 0.452891 0.344801
vt 0.312060 0.499366
vt 0.297425 0.358851
vt 0.312060 0.344758
vt 0.469007 0.234912
vt 0.593541 0.343533
vt 0.593198 0.235211
vt 0.468615 0.234494
vt 0.593503 0.343408
vt 0.468910 0.343635
vt 0.468430 0.235263
vt 0.592699 0.343131
vt 0.469331 0.342821
vt 0.469003 0.234858
vt 0.593197 0.342679
vt 0.593444 0.234810
vt 0.436053 0.499139
vt 0.313887 0.376290
vt 0.313171 0.498196
vt 0.499483 0.751677
vt 0.593425 0.777772
vt 0.499630 0.780952
vt 0.592602 0.777666
vt 0.500447 0.733397
vt 0.500497 0.780425
vt 0.126192 0.468454
vt 0.156193 0.345117
vt 0.126395 0.375282
vt 0.687620 0.500280
vt 0.656486 0.655906
vt 0.687131 0.687487
vt 0.500460 0.687266
vt 0.656214 0.656935
vt 0.531272 0.656710
vt 0.000436 0.750727
vt 0.030597 0.969512
vt 0.031206 0.781339
vt 0.219253 0.781247
vt 0.250187 0.999763
vt 0.249398 0.750747
vt 0.296893 0.359153
vt 0.156501 0.344021
vt 0.312497 0.343994
vt 0.156856 0.499390
vt 0.171490 0.359831
vt 0.171490 0.485297
vt 0.296775 0.484652
vt 0.156635 0.499899
vt 0.172092 0.484674
vt 0.359163 0.250059
vt 0.344187 0.358712
vt 0.344033 0.234844
vt 0.468413 0.234741
vt 0.359932 0.249683
vt 0.343289 0.234888
vt 0.453792 0.246657
vt 0.467537 0.359040
vt 0.453946 0.342902
vt 0.500028 0.999905
vt 0.155578 0.499125
vt 0.125849 0.375023
vt 0.125816 0.468832
vt 0.656288 0.999712
vt 0.655423 0.999854
vt 0.500986 0.999917
vt 0.469217 0.343451
vt 0.592413 0.235574
vt 0.593587 0.234499
vt 0.468924 0.343434
vt 0.435792 0.376257
vt 0.500586 0.781044
vt 0.592533 0.712324
vt 0.500396 0.779951
vt 0.593185 0.729845
vt 0.624489 0.834377
vt 0.624287 0.810835
vt 0.624959 0.811362
vt 0.500768 0.889618
vt 0.453284 0.248993
vt 0.358855 0.343998
vt 0.344341 0.358712
vt 0.467383 0.235173
vt 0.312181 0.499772
vt 0.156856 0.344633
vt 0.171746 0.358975
vt 0.297425 0.484168
vt 0.343592 0.343356
vt 0.156315 0.343700
vt 0.156743 0.343711
vt 0.343075 0.343212
vt 0.656500 0.531206
vt 0.686705 0.500364
vt 0.686852 0.687073
vt 0.530653 0.530313
vt 0.499458 0.500680
vt 0.250199 0.875041
vt 0.250087 0.750043
vt 0.498906 0.627147
vt 0.248529 0.501487
vt 0.000357 0.999581
vt 0.031013 0.969216
vt 0.218538 0.781003
vt 0.218897 0.968428
vt 0.155687 0.344373
vt 0.124822 0.469164
vt 0.155295 0.498741
vt 0.155885 0.344363
vn -1.0000 0.0000 -0.0000
vn 0.0000 1.0000 -0.0000
vn 1.0000 -0.0000 0.0000
vn -0.0000 -1.0000 -0.0000
vn -0.0000 0.0000 1.0000
vn 0.0000 -0.0000 -1.0000
vn -0.0785 0.4549 0.8871
vn -0.3759 0.3291 0.8663
vn -0.1776 -0.2488 0.9521
vn -0.4632 0.4624 -0.7560
vn 0.2628 0.5715 -0.7774
vn -0.4328 -0.0776 -0.8982
vn 0.1066 -0.1067 0.9886
vn -0.4239 0.4231 -0.8008
vn -0.9815 -0.0196 0.1906
vn 0.0175 0.9815 0.1908
vn 0.9815 0.0196 -0.1906
vn -0.0175 -0.9815 -0.1908
vn 0.1537 -0.1695 0.9735
vn 0.1908 -0.1906 0.9630
vn -0.1952 -0.9359 0.2932
vn 0.6791 -0.5797 0.4503
vn -0.6442 0.0380 -0.7639
vn -0.6024 0.5903 0.5374
vn 0.2843 0.5059 0.8144
vn -0.3817 0.3782 -0.8433
vn -0.1908 0.1906 -0.9630
vn -0.9216 -0.0869 0.3782
vn 0.0698 0.9216 0.3818
vn 0.9216 0.0869 -0.3782
vn -0.0698 -0.9216 -0.3818
vn 0.3817 -0.3782 0.8433
vn -0.0464 0.6462 -0.7618
vn -0.4075 0.4035 -0.8192
usemtl Material.001
s 1
f 13/1/1 26/2/1 1/3/1
f 1/4/2 31/5/2 29/6/2
f 29/7/3 35/8/3 33/9/3
f 33/10/4 22/11/4 13/12/4
f 7/13/5 31/14/5 26/15/5
f 34/16/5 22/17/5 35/18/5
f 1/19/6 33/20/6 13/21/6
f 18/22/1 28/23/1 7/24/1
f 7/25/2 32/26/2 30/27/2
f 30/28/3 36/29/3 34/30/3
f 34/31/4 24/32/4 18/33/4
f 38/34/7 28/35/5 39/36/8
f 40/37/9 28/38/5 24/39/5
f 20/40/10 40/41/9 43/42/11
f 38/43/7 20/44/10 41/45/12
f 37/46/13 41/47/12 42/48/14
f 37/49/13 43/50/11 40/51/9
f 10/52/15 19/53/15 4/54/15
f 4/55/16 23/56/16 21/57/16
f 21/58/17 27/59/17 25/60/17
f 25/61/18 16/62/18 10/63/18
f 47/64/19 16/65/20 45/66/21
f 23/67/20 46/68/22 27/69/20
f 46/70/22 6/71/23 45/72/21
f 12/73/24 44/74/25 47/75/19
f 3/76/26 12/77/26 6/78/23
f 21/79/27 20/80/10 4/81/27
f 3/82/28 8/83/28 2/84/28
f 9/85/29 8/86/29 11/87/29
f 14/88/30 11/89/30 15/90/30
f 14/91/31 5/92/31 3/93/31
f 11/94/32 5/95/32 15/96/32
f 46/97/22 17/98/33 48/99/34
f 12/100/24 45/101/21 6/102/23
f 44/103/25 19/104/20 47/105/19
f 32/106/5 37/107/13 36/108/5
f 24/109/5 37/110/13 40/111/9
f 26/112/5 18/113/5 7/114/5
f 30/115/5 35/116/5 31/117/5
f 20/118/10 10/119/27 4/120/27
f 25/121/27 43/122/11 42/123/14
f 41/124/12 25/125/27 42/126/14
f 17/127/33 2/128/26 9/129/26
f 14/130/26 17/131/33 9/132/26
f 48/133/34 3/134/26 6/135/23
f 25/61/18 27/136/18 16/62/18
f 16/137/20 46/138/22 45/139/21
f 21/58/17 23/140/17 27/59/17
f 4/55/16 19/141/16 23/56/16
f 10/52/15 16/142/15 19/53/15
f 14/91/31 15/143/31 5/92/31
f 14/88/30 9/144/30 11/89/30
f 9/85/29 2/145/29 8/86/29
f 3/82/28 5/146/28 8/83/28
f 11/94/32 8/147/32 5/95/32
f 46/70/22 48/148/34 6/71/23
f 12/100/24 47/149/19 45/101/21
f 12/73/24 17/150/33 44/74/25
f 46/97/22 44/151/25 17/98/33
f 37/46/13 38/152/7 41/47/12
f 38/43/7 39/153/8 20/44/10
f 20/40/10 39/154/8 40/41/9
f 37/49/13 42/155/14 43/50/11
f 14/130/26 48/156/34 17/131/33
f 17/127/33 12/157/26 2/128/26
f 3/76/26 2/158/26 12/77/26
f 48/133/34 14/159/26 3/134/26
f 41/124/12 21/160/27 25/125/27
f 25/121/27 10/161/27 43/122/11
f 20/118/10 43/162/11 10/119/27
f 21/79/27 41/163/12 20/80/10
f 30/28/3 32/164/3 36/29/3
f 34/31/4 36/165/4 24/32/4
f 18/22/1 24/166/1 28/23/1
f 7/25/2 28/167/2 32/26/2
f 32/106/5 38/168/7 37/107/13
f 38/34/7 32/169/5 28/35/5
f 24/109/5 36/170/5 37/110/13
f 40/37/9 39/171/8 28/38/5
f 13/1/1 22/172/1 26/2/1
f 1/4/2 26/173/2 31/5/2
f 29/7/3 31/174/3 35/8/3
f 33/10/4 35/175/4 22/11/4
f 1/19/6 29/176/6 33/20/6
f 26/112/5 22/177/5 18/113/5
f 34/16/5 18/178/5 22/17/5
f 7/13/5 30/179/5 31/14/5
f 30/115/5 34/180/5 35/116/5
f 47/64/19 19/181/20 16/65/20
f 23/67/20 44/182/25 46/68/22
f 44/103/25 23/183/20 19/104/20
f 16/137/20 27/184/20 46/138/22
