# Blender v3.0.0 OBJ File: 'thaumatorium fix.blend'
# www.blender.org
mtllib thaumatorium fix v2.mtl
o thaumatorium
v -0.437500 -0.437500 0.125000
v -0.437500 0.437500 0.125000
v -0.437500 0.437500 0.000000
v -0.437500 -0.437500 -0.000000
v 0.437500 -0.437500 0.125000
v 0.437500 -0.437500 -0.000000
v 0.437500 0.437500 0.125000
v 0.437500 0.437500 0.000000
v 0.346400 0.200000 0.125000
v 0.346400 -0.200000 0.125000
v 0.000000 -0.400000 0.125000
v -0.346400 -0.200000 0.125000
v -0.346400 0.200000 0.125000
v 0.000000 0.400000 0.125000
v -0.125000 -0.327800 0.625000
v -0.125000 -0.327800 0.375000
v -0.125000 -0.500000 0.375000
v -0.125000 -0.500000 0.625000
v 0.125000 -0.500000 0.375000
v 0.125000 -0.500000 0.625000
v 0.000000 -0.400000 0.375000
v 0.125000 -0.327800 0.375000
v 0.125000 -0.327800 0.625000
v 0.346400 0.125000 0.625000
v 0.346400 -0.125000 0.625000
v 0.500000 -0.125000 0.625000
v 0.500000 0.125000 0.625000
v 0.500000 0.125000 0.375000
v 0.346400 0.125000 0.375000
v 0.500000 -0.125000 0.375000
v 0.346400 -0.125000 0.375000
v -0.500000 -0.162500 0.662500
v -0.346400 -0.162500 0.662500
v -0.346400 0.162500 0.662500
v -0.500000 0.162500 0.662500
v -0.500000 0.162500 0.337500
v -0.500000 -0.162500 0.337500
v -0.346400 0.162500 0.337500
v -0.346400 -0.162500 0.337500
v 0.000000 0.400000 0.625000
v 0.125000 0.327800 0.625000
v 0.125000 0.500000 0.625000
v -0.125000 0.500000 0.625000
v -0.125000 0.327800 0.625000
v 0.125000 0.500000 0.375000
v -0.125000 0.500000 0.375000
v -0.125000 0.327800 0.375000
v 0.125000 0.327800 0.375000
v -0.433000 0.250000 1.250000
v -0.433000 0.250000 1.000000
v -0.433000 -0.250000 1.000000
v -0.433000 -0.250000 1.250000
v -0.500000 -0.250000 1.250000
v -0.500000 0.250000 1.250000
v -0.500000 0.250000 1.750000
v -0.433000 0.250000 1.750000
v -0.500000 -0.250000 1.750000
v -0.433000 -0.250000 1.750000
v -0.125000 0.427800 1.625000
v 0.000000 0.500000 1.625000
v -0.125000 0.500000 1.625000
v -0.125000 0.500000 1.375000
v -0.125000 0.427800 1.375000
v 0.000000 0.500000 1.375000
v 0.125000 0.500000 1.375000
v 0.125000 0.500000 1.625000
v 0.125000 0.427800 1.625000
v 0.125000 0.427800 1.375000
v -0.125000 -0.500000 1.375000
v -0.125000 -0.500000 1.625000
v -0.125000 -0.427800 1.625000
v -0.125000 -0.427800 1.375000
v 0.000000 -0.500000 1.625000
v 0.000000 -0.500000 1.375000
v 0.125000 -0.427800 1.625000
v 0.125000 -0.500000 1.625000
v 0.125000 -0.500000 1.375000
v 0.125000 -0.427800 1.375000
v 0.500000 -0.125000 1.375000
v 0.500000 -0.125000 1.625000
v 0.433000 -0.125000 1.625000
v 0.433000 -0.125000 1.375000
v 0.500000 0.125000 1.625000
v 0.433000 0.125000 1.625000
v 0.500000 0.125000 1.375000
v 0.433000 0.125000 1.375000
v 0.000000 -0.400000 0.625000
v 0.000000 -0.400000 0.875000
v -0.346400 -0.200000 0.875000
v -0.346400 0.200000 0.875000
v 0.000000 0.400000 0.375000
v 0.000000 0.400000 0.875000
v 0.346400 0.200000 0.875000
v 0.346400 -0.200000 0.875000
v 0.000000 0.500000 1.000000
v 0.000000 0.500000 1.750000
v 0.433000 0.250000 1.750000
v 0.433000 0.250000 1.000000
v 0.000000 -0.500000 1.000000
v 0.433000 -0.250000 1.000000
v 0.433000 -0.250000 1.750000
v 0.000000 -0.500000 1.750000
v 0.000000 0.211300 2.000000
v -0.183000 0.105700 2.000000
v -0.183000 -0.105700 2.000000
v 0.000000 -0.211300 2.000000
v 0.183000 -0.105700 2.000000
v 0.183000 0.105700 2.000000
v -0.183000 -0.105700 1.875000
v -0.183000 0.105700 1.875000
v 0.000000 -0.211300 1.875000
v 0.183000 -0.105700 1.875000
v 0.183000 0.105700 1.875000
v 0.000000 0.211300 1.875000
vt 0.031509 0.905952
vt 0.234141 0.875693
vt 0.233849 0.905796
vt 0.657205 0.781997
vt 0.657210 0.845322
vt 0.703175 0.818768
vt 0.031733 0.875876
vt 0.233843 0.905344
vt 0.233810 0.875646
vt 0.703194 0.821635
vt 0.657176 0.795043
vt 0.657163 0.858445
vt 0.635589 0.484484
vt 0.626321 0.592611
vt 0.626321 0.376357
vt 0.842575 0.592611
vt 0.833307 0.484484
vt 0.842575 0.376357
vt 0.764955 0.874093
vt 0.641530 0.815752
vt 0.764959 0.815759
vt 0.375098 0.750028
vt 0.468633 0.843709
vt 0.375122 0.843660
vt 0.627602 0.377984
vt 0.842198 0.592580
vt 0.842198 0.377984
vt 0.702969 0.821430
vt 0.749063 0.794807
vt 0.749062 0.858305
vt 0.657208 0.794661
vt 0.749665 0.858341
vt 0.657210 0.858344
vt 0.053854 0.232321
vt 0.196815 0.017879
vt 0.196815 0.232321
vt 0.749556 0.801591
vt 0.656661 0.858694
vt 0.749569 0.858673
vt 0.765933 0.797273
vt 0.641339 0.873814
vt 0.641343 0.797266
vt 0.764730 0.875093
vt 0.641199 0.816717
vt 0.641201 0.875098
vt 0.764798 0.874041
vt 0.640679 0.816076
vt 0.764811 0.816102
vt 0.234167 0.906127
vt 0.031347 0.875005
vt 0.031543 0.906202
vt 0.657057 0.858743
vt 0.749578 0.801894
vt 0.749580 0.858740
vt 0.375422 0.875530
vt 0.468168 0.921146
vt 0.468164 0.875061
vt 0.467411 0.842440
vt 0.376395 0.751425
vt 0.467411 0.751425
vt 0.657153 0.858439
vt 0.657152 0.794650
vt 0.703457 0.821394
vt 0.375438 0.843266
vt 0.466547 0.752157
vt 0.375438 0.752157
vt 0.623630 0.873701
vt 0.502304 0.752375
vt 0.502304 0.873701
vt 0.015769 0.859279
vt 0.203059 0.671936
vt 0.015760 0.671956
vt 0.375116 0.890738
vt 0.468493 0.921698
vt 0.468632 0.890773
vt 0.218620 0.906003
vt 0.016118 0.875409
vt 0.218522 0.875185
vt 0.360040 0.554387
vt 0.420517 0.589285
vt 0.420517 0.659147
vt 0.656753 0.802320
vt 0.749900 0.858506
vt 0.749902 0.802325
vt 0.015989 0.875506
vt 0.218534 0.906016
vt 0.375185 0.890801
vt 0.420924 0.921151
vt 0.375183 0.921696
vt 0.016075 0.875440
vt 0.218578 0.906077
vt 0.218479 0.875259
vt 0.375127 0.890740
vt 0.375164 0.921714
vt 0.420945 0.921208
vt 0.468579 0.890718
vt 0.468550 0.921638
vt 0.468597 0.890750
vt 0.468448 0.921737
vt 0.421677 0.921206
vt 0.468597 0.890761
vt 0.421637 0.921256
vt 0.468527 0.921708
vt 0.468483 0.921634
vt 0.375106 0.890753
vt 0.468591 0.890910
vt 0.468605 0.890743
vt 0.468431 0.921726
vt 0.421746 0.921160
vt 0.468611 0.890824
vt 0.421680 0.921195
vt 0.468489 0.921652
vt 0.375149 0.890658
vt 0.420988 0.921240
vt 0.375190 0.921619
vt 0.641133 0.874055
vt 0.729688 0.811984
vt 0.765518 0.874217
vt 0.375130 0.890732
vt 0.375190 0.921667
vt 0.420970 0.921179
vt 0.375198 0.890666
vt 0.468536 0.921636
vt 0.375197 0.921651
vt 0.677065 0.812135
vt 0.765279 0.874098
vt 0.641286 0.874136
vt 0.468490 0.921775
vt 0.375152 0.890804
vt 0.375150 0.921790
vt 0.375143 0.921638
vt 0.468669 0.890770
vt 0.468483 0.921624
vt 0.468603 0.890837
vt 0.375116 0.921783
vt 0.468535 0.921651
vt 0.112124 0.160006
vt 0.048970 0.231319
vt 0.048970 0.017381
vt 0.547193 0.171149
vt 0.536445 0.232051
vt 0.640338 0.171149
vt 0.137871 0.089779
vt 0.201367 0.018080
vt 0.201367 0.233176
vt 0.112795 0.088599
vt 0.048499 0.015997
vt 0.048499 0.233802
vt 0.182303 0.232823
vt 0.067136 0.016883
vt 0.182303 0.016883
vt 0.047285 0.033210
vt 0.187468 0.078118
vt 0.202955 0.032968
vt 0.749695 0.859023
vt 0.657022 0.795200
vt 0.657026 0.859030
vt 0.062563 0.077899
vt 0.202969 0.032968
vt 0.187424 0.078084
vt 0.749516 0.794807
vt 0.656693 0.858727
vt 0.749508 0.858738
vt 0.371944 0.374750
vt 0.371944 0.302744
vt 0.283233 0.266742
vt 0.422092 0.750928
vt 0.376200 0.750928
vt 0.376200 0.842713
vt 0.342745 0.268274
vt 0.466603 0.268274
vt 0.378501 0.304030
vt 0.423327 0.842053
vt 0.377896 0.842053
vt 0.377896 0.751193
vt 0.467780 0.267027
vt 0.343067 0.267027
vt 0.379069 0.303030
vt 0.734219 0.781479
vt 0.656355 0.828017
vt 0.734086 0.827788
vt 0.734198 0.781406
vt 0.656327 0.828018
vt 0.734065 0.827715
vt 0.676452 0.811211
vt 0.765603 0.874011
vt 0.640192 0.873878
vt 0.520976 0.189684
vt 0.623073 0.218045
vt 0.532320 0.218045
vt 0.677470 0.812304
vt 0.765288 0.874087
vt 0.641786 0.874033
vt 0.677085 0.812602
vt 0.765097 0.874711
vt 0.641214 0.874475
vt 0.734200 0.781361
vt 0.656336 0.828048
vt 0.734104 0.827745
vt 0.015923 0.905981
vt 0.218515 0.875300
vt 0.218571 0.905991
vt 0.656463 0.781417
vt 0.734064 0.827754
vt 0.656398 0.828024
vt 0.656602 0.781420
vt 0.734053 0.827761
vt 0.656500 0.827990
vt 0.375197 0.921750
vt 0.468605 0.890736
vt 0.641568 0.874685
vt 0.729219 0.813280
vt 0.764662 0.874876
vt 0.656542 0.781417
vt 0.734069 0.827754
vt 0.656477 0.828024
vt 0.046904 0.032802
vt 0.203045 0.032854
vt 0.047342 0.033296
vt 0.187443 0.078024
vt 0.062485 0.077840
vt 0.372005 0.374552
vt 0.282557 0.265646
vt 0.372005 0.301948
vt 0.500432 0.341541
vt 0.654816 0.266791
vt 0.500432 0.266791
vt 0.651086 0.017101
vt 0.640338 0.078004
vt 0.651086 0.232051
vt 0.376719 0.752612
vt 0.467579 0.843473
vt 0.376719 0.843473
vt 0.234162 0.875221
vt 0.031590 0.905973
vt 0.031596 0.875049
vt 0.673462 0.370531
vt 0.730183 0.370531
vt 0.730183 0.313811
vt 0.673462 0.313811
vt 0.612226 0.777601
vt 0.612226 0.834322
vt 0.668946 0.834322
vt 0.668946 0.777601
vt 0.062524 0.078086
vt 0.203051 0.032899
vt 0.046933 0.032836
vt 0.138054 0.161173
vt 0.202176 0.233579
vt 0.202176 0.016361
vt 0.452890 0.875346
vt 0.390863 0.921458
vt 0.390861 0.875206
vt 0.468682 0.750077
vt 0.749662 0.794658
vt 0.656875 0.858304
vt 0.656876 0.794806
vt 0.749144 0.845315
vt 0.749140 0.781990
vt 0.749690 0.795193
vt 0.031434 0.875274
vt 0.031765 0.905575
vt 0.749210 0.858463
vt 0.749223 0.795061
vt 0.783878 0.398872
vt 0.685019 0.398872
vt 0.783878 0.570096
vt 0.685019 0.570096
vt 0.641527 0.874086
vt 0.627602 0.592580
vt 0.053854 0.017879
vt 0.656649 0.801612
vt 0.765929 0.873821
vt 0.764728 0.816711
vt 0.640667 0.874016
vt 0.234261 0.875083
vt 0.657055 0.801897
vt 0.375426 0.921615
vt 0.376395 0.842440
vt 0.749761 0.794647
vt 0.749762 0.858436
vt 0.466547 0.843266
vt 0.623630 0.752375
vt 0.203083 0.859340
vt 0.375193 0.921791
vt 0.015930 0.905994
vt 0.360040 0.694045
vt 0.299563 0.659147
vt 0.299563 0.589285
vt 0.656750 0.858502
vt 0.015972 0.905964
vt 0.015887 0.905983
vt 0.375094 0.890679
vt 0.375144 0.921688
vt 0.677126 0.811903
vt 0.468565 0.890822
vt 0.729462 0.812106
vt 0.375145 0.890653
vt 0.147781 0.160006
vt 0.147781 0.231319
vt 0.147781 0.017381
vt 0.112124 0.088694
vt 0.147781 0.088694
vt 0.547193 0.078004
vt 0.536445 0.017101
vt 0.102022 0.089779
vt 0.102022 0.018080
vt 0.102022 0.233176
vt 0.137871 0.161477
vt 0.102022 0.161477
vt 0.149096 0.088599
vt 0.149096 0.015997
vt 0.149096 0.233802
vt 0.112795 0.161200
vt 0.149096 0.161200
vt 0.067135 0.232823
vt 0.062515 0.077851
vt 0.047298 0.033291
vt 0.656701 0.794796
vt 0.283233 0.482758
vt 0.407947 0.482758
vt 0.407947 0.374750
vt 0.407947 0.302744
vt 0.407947 0.266742
vt 0.422092 0.842713
vt 0.467984 0.842713
vt 0.467984 0.750928
vt 0.466603 0.411297
vt 0.466603 0.482809
vt 0.378501 0.375541
vt 0.342745 0.482809
vt 0.342745 0.375541
vt 0.342745 0.304030
vt 0.423327 0.751193
vt 0.468757 0.751193
vt 0.468757 0.842053
vt 0.343067 0.375036
vt 0.343067 0.483044
vt 0.379069 0.375036
vt 0.467780 0.483044
vt 0.467780 0.411039
vt 0.343067 0.303030
vt 0.656383 0.781335
vt 0.656429 0.781448
vt 0.729476 0.811267
vt 0.634417 0.189684
vt 0.729658 0.812314
vt 0.729462 0.812701
vt 0.656513 0.781404
vt 0.015984 0.875439
vt 0.734271 0.781333
vt 0.734223 0.781415
vt 0.375080 0.890658
vt 0.677202 0.813187
vt 0.062545 0.078113
vt 0.203060 0.032908
vt 0.408307 0.374552
vt 0.408307 0.483458
vt 0.282557 0.483458
vt 0.408307 0.265646
vt 0.408307 0.301948
vt 0.654816 0.341541
vt 0.467579 0.752612
vt 0.234034 0.906003
vt 0.187472 0.078083
vt 0.101851 0.161173
vt 0.101851 0.233579
vt 0.101851 0.016361
vt 0.138054 0.088767
vt 0.101851 0.088767
vt 0.452891 0.921843
vn 0.0000 -1.0000 -0.0000
vn 0.0000 0.0000 -1.0000
vn 0.0000 1.0000 0.0000
vn 0.0000 -0.0000 1.0000
vn 1.0000 0.0000 0.0000
vn -1.0000 0.0000 0.0000
vn -0.2236 -0.3873 0.8944
vn 0.2236 -0.3873 0.8944
vn 0.5000 -0.8660 0.0000
vn -0.5000 -0.8660 -0.0000
vn 0.5000 0.8660 -0.0000
vn 0.4110 0.7119 -0.5695
vn -0.4110 -0.7119 -0.5695
vn 0.5000 0.8660 -0.0001
vn -0.5001 -0.8660 -0.0001
vn -0.5000 -0.8660 -0.0001
vn -0.5000 0.8660 -0.0000
vn -0.5001 0.8660 -0.0001
vn -0.5000 0.8660 -0.0001
vn 0.4998 0.8661 0.0000
vn -0.4472 0.0000 0.8944
vn 0.8220 0.0000 -0.5695
vn -0.2236 0.3873 0.8944
vn 0.4472 0.0000 0.8944
vn -0.4998 0.8661 0.0000
vn 0.4998 -0.8661 -0.0000
vn 0.2236 0.3873 0.8944
vn -0.4998 -0.8661 -0.0000
vn -0.8220 0.0000 -0.5695
vn 0.4110 -0.7119 -0.5695
vn 0.5000 -0.8660 -0.0001
vn -0.4110 0.7119 -0.5695
vn -0.2238 -0.3874 0.8943
vn 0.2238 -0.3874 0.8943
vn 0.5002 -0.8659 0.0000
vn 0.5001 -0.8660 0.0001
vn 0.5001 -0.8660 -0.0001
vn -0.5002 -0.8659 -0.0000
vn -0.5001 -0.8660 0.0001
vn 0.5002 0.8659 0.0000
vn 0.5001 0.8660 -0.0001
vn 0.5001 0.8660 0.0001
vn 0.5000 0.8660 0.0001
vn 0.4997 0.8662 -0.0000
vn -0.4999 -0.8661 -0.0000
vn -0.5000 -0.8660 0.0001
vn -0.4997 -0.8662 -0.0000
vn -0.4997 0.8662 0.0000
vn -0.5000 0.8660 0.0001
vn -0.4999 0.8661 0.0000
vn -0.5002 0.8659 0.0000
vn -0.2238 0.3874 0.8943
vn 0.2238 0.3874 0.8943
vn 0.4997 -0.8662 -0.0000
vn 0.5000 -0.8660 0.0001
vn -0.5001 0.8660 0.0001
usemtl wire_214228153
s 1
f 1/1/1 6/2/1 5/3/1
f 17/4/2 16/5/2 21/6/2
f 7/7/3 3/8/3 2/9/3
f 91/10/2 47/11/2 46/12/2
f 11/13/4 1/14/4 5/15/4
f 2/16/4 14/17/4 7/18/4
f 32/19/1 39/20/1 33/21/1
f 19/22/1 18/23/1 17/24/1
f 6/25/2 3/26/2 8/27/2
f 87/28/4 15/29/4 18/30/4
f 20/31/5 22/32/5 23/33/5
f 98/34/5 101/35/5 100/36/5
f 29/37/3 27/38/3 28/39/3
f 25/40/4 27/41/4 24/42/4
f 39/43/2 36/44/2 38/45/2
f 33/46/4 35/47/4 32/48/4
f 2/49/6 4/50/6 1/51/6
f 26/52/1 31/53/1 30/54/1
f 38/55/3 35/56/3 34/57/3
f 30/58/5 27/59/5 26/60/5
f 43/61/4 44/62/4 40/63/4
f 46/64/3 42/65/3 45/66/3
f 37/67/6 35/68/6 36/69/6
f 54/70/6 57/71/6 55/72/6
f 70/73/6 72/74/6 69/75/6
f 52/76/1 57/77/1 53/78/1
f 106/79/4 107/80/4 108/81/4
f 29/82/2 30/83/2 31/84/2
f 54/85/2 52/86/2 53/78/2
f 59/87/4 60/88/4 61/89/4
f 55/90/3 49/91/3 54/92/3
f 63/93/2 62/94/2 64/95/2
f 63/96/6 61/89/6 62/97/6
f 67/98/4 66/99/4 60/100/4
f 68/101/2 64/102/2 65/103/2
f 78/104/5 76/105/5 77/106/5
f 71/107/4 70/108/4 73/109/4
f 72/110/2 74/111/2 69/112/2
f 75/113/4 73/114/4 76/115/4
f 102/116/7 109/117/7 58/118/7
f 78/119/2 77/120/2 74/121/2
f 84/122/4 80/123/4 83/124/4
f 112/125/8 102/126/8 101/127/8
f 79/128/2 86/129/2 85/130/2
f 80/131/1 82/132/1 79/133/1
f 86/134/3 83/135/3 85/136/3
f 22/137/9 10/138/9 94/139/9
f 38/140/6 13/141/6 39/142/6
f 15/143/10 89/144/10 12/145/10
f 41/146/11 93/147/11 9/148/11
f 10/149/5 93/150/5 94/151/5
f 98/152/12 92/153/12 95/154/12
f 16/155/6 18/156/6 15/157/6
f 88/158/13 51/159/13 89/160/13
f 43/161/6 47/162/6 44/163/6
f 68/164/11 67/165/14 97/166/11
f 64/167/3 62/168/3 61/169/3
f 102/170/15 58/171/10 71/172/16
f 74/173/1 77/174/1 76/175/1
f 56/176/17 96/177/18 59/178/19
f 103/179/20 113/180/20 114/181/20
f 105/182/6 110/183/6 109/184/6
f 109/185/21 56/186/21 58/187/21
f 98/188/22 94/189/22 93/190/22
f 110/191/23 96/192/23 56/193/23
f 113/194/24 101/195/24 97/196/24
f 104/197/25 114/198/25 110/199/25
f 57/200/4 56/201/4 55/202/4
f 107/203/26 111/204/26 112/205/26
f 108/206/5 112/207/5 113/208/5
f 66/209/5 68/210/5 65/103/5
f 96/211/27 113/212/27 97/213/27
f 106/214/28 109/215/28 111/216/28
f 50/217/29 89/160/29 51/218/29
f 100/219/30 88/220/30 94/221/30
f 78/222/9 101/223/9 75/224/31
f 50/225/6 52/226/6 49/227/6
f 89/228/6 33/229/6 12/230/6
f 83/231/5 79/232/5 85/233/5
f 5/234/5 8/235/5 7/236/5
f 29/237/6 31/238/6 25/239/6
f 25/239/6 24/240/6 29/237/6
f 84/241/6 86/242/6 82/243/6
f 82/243/6 81/244/6 84/241/6
f 92/245/32 50/246/32 95/247/32
f 47/248/17 13/249/17 90/250/17
f 48/251/5 42/252/5 41/253/5
f 19/22/1 20/254/1 18/23/1
f 20/31/5 19/255/5 22/32/5
f 18/30/4 20/256/4 87/28/4
f 20/256/4 23/257/4 87/28/4
f 21/6/2 22/258/2 19/259/2
f 19/259/2 17/4/2 21/6/2
f 16/155/6 17/260/6 18/156/6
f 1/1/1 4/261/1 6/2/1
f 7/7/3 8/262/3 3/8/3
f 46/12/2 45/263/2 91/10/2
f 45/263/2 48/264/2 91/10/2
f 7/18/4 9/265/4 10/266/4
f 5/15/4 7/18/4 10/266/4
f 13/267/4 2/16/4 1/14/4
f 12/268/4 13/267/4 1/14/4
f 5/15/4 10/266/4 11/13/4
f 11/13/4 12/268/4 1/14/4
f 2/16/4 13/267/4 14/17/4
f 14/17/4 9/265/4 7/18/4
f 32/19/1 37/269/1 39/20/1
f 6/25/2 4/270/2 3/26/2
f 98/34/5 97/271/5 101/35/5
f 29/37/3 24/272/3 27/38/3
f 25/40/4 26/273/4 27/41/4
f 39/43/2 37/274/2 36/44/2
f 33/46/4 34/275/4 35/47/4
f 2/49/6 3/276/6 4/50/6
f 26/52/1 25/277/1 31/53/1
f 38/55/3 36/278/3 35/56/3
f 30/58/5 28/279/5 27/59/5
f 40/63/4 41/280/4 42/281/4
f 42/281/4 43/61/4 40/63/4
f 46/64/3 43/282/3 42/65/3
f 37/67/6 32/283/6 35/68/6
f 54/70/6 53/284/6 57/71/6
f 70/73/6 71/285/6 72/74/6
f 52/76/1 58/286/1 57/77/1
f 108/81/4 103/287/4 106/79/4
f 103/287/4 104/288/4 106/79/4
f 104/288/4 105/289/4 106/79/4
f 29/82/2 28/290/2 30/83/2
f 54/85/2 49/291/2 52/86/2
f 55/90/3 56/292/3 49/91/3
f 63/96/6 59/293/6 61/89/6
f 78/104/5 75/294/5 76/105/5
f 102/116/7 111/295/33 109/117/7
f 84/122/4 81/296/4 80/123/4
f 112/125/8 111/297/34 102/126/8
f 79/128/2 82/132/2 86/129/2
f 80/131/1 81/298/1 82/132/1
f 86/134/3 84/122/3 83/135/3
f 22/137/9 21/299/35 11/300/36
f 94/139/9 88/301/37 23/302/9
f 88/301/37 87/303/35 23/302/9
f 22/137/9 11/300/36 10/138/9
f 94/139/9 23/302/9 22/137/9
f 38/140/6 34/304/6 90/305/6
f 13/141/6 12/230/6 39/142/6
f 38/140/6 90/305/6 13/141/6
f 15/143/10 87/306/38 88/307/15
f 12/145/10 11/308/39 16/309/10
f 11/308/39 21/310/38 16/309/10
f 15/143/10 88/307/15 89/144/10
f 12/145/10 16/309/10 15/143/10
f 41/146/11 40/311/40 92/312/41
f 9/148/11 14/313/42 48/314/11
f 14/313/42 91/315/40 48/314/11
f 41/146/11 92/312/41 93/147/11
f 9/148/11 48/314/11 41/146/11
f 10/149/5 9/316/5 93/150/5
f 98/152/12 93/317/12 92/153/12
f 88/158/13 99/318/13 51/159/13
f 43/161/6 46/319/6 47/162/6
f 98/320/11 95/321/43 68/164/11
f 95/321/43 64/322/44 68/164/11
f 60/323/40 96/324/41 67/165/14
f 96/324/41 97/166/11 67/165/14
f 98/320/11 68/164/11 97/166/11
f 61/169/3 60/325/3 64/167/3
f 60/325/3 66/326/3 64/167/3
f 66/326/3 65/327/3 64/167/3
f 58/171/10 52/328/45 71/172/16
f 52/328/45 51/329/10 72/330/10
f 71/172/16 52/328/45 72/330/10
f 51/329/10 99/331/46 72/330/10
f 99/331/46 74/332/47 72/330/10
f 73/333/38 102/170/15 71/172/16
f 76/175/1 73/334/1 74/173/1
f 73/334/1 70/335/1 74/173/1
f 70/335/1 69/336/1 74/173/1
f 64/337/48 95/338/49 63/339/17
f 95/338/49 50/340/17 63/339/17
f 50/340/17 49/341/50 63/339/17
f 49/341/50 56/176/17 59/178/19
f 96/177/18 60/342/51 59/178/19
f 59/178/19 63/339/17 49/341/50
f 103/179/20 108/343/20 113/180/20
f 105/182/6 104/344/6 110/183/6
f 109/185/21 110/345/21 56/186/21
f 98/188/22 100/346/22 94/189/22
f 110/191/23 114/347/52 96/192/23
f 113/194/24 112/348/24 101/195/24
f 104/197/25 103/349/25 114/198/25
f 57/200/4 58/350/4 56/201/4
f 107/203/26 106/351/26 111/204/26
f 108/206/5 107/352/5 112/207/5
f 66/209/5 67/353/5 68/210/5
f 96/211/27 114/354/53 113/212/27
f 106/214/28 105/182/28 109/215/28
f 50/217/29 90/355/29 89/160/29
f 100/219/30 99/356/30 88/220/30
f 78/222/9 74/357/54 99/358/55
f 99/358/55 100/359/9 78/222/9
f 100/359/9 101/223/9 78/222/9
f 101/223/9 102/360/37 75/224/31
f 102/360/37 73/361/35 75/224/31
f 50/225/6 51/362/6 52/226/6
f 89/228/6 90/305/6 33/229/6
f 90/305/6 34/304/6 33/229/6
f 33/229/6 39/142/6 12/230/6
f 83/231/5 80/363/5 79/232/5
f 5/234/5 6/364/5 8/235/5
f 92/245/32 90/365/32 50/246/32
f 47/248/17 91/366/51 14/367/56
f 90/250/17 92/368/18 44/369/17
f 92/368/18 40/370/51 44/369/17
f 47/248/17 14/367/56 13/249/17
f 90/250/17 44/369/17 47/248/17
f 48/251/5 45/371/5 42/252/5
